<svg width="56" height="56" viewBox="0 0 56 56" fill="none" xmlns="http://www.w3.org/2000/svg">
<circle cx="28" cy="28" r="27" fill="#2C1F00" stroke="white" stroke-width="2"/>
<path d="M41.444 33.3085C40.7203 33.8125 39.8887 34.1402 39.0157 34.2652C38.1427 34.3902 37.2525 34.3092 36.4165 34.0285C36.3407 34.0015 36.2596 33.9932 36.18 34.0042C36.1003 34.0153 36.0245 34.0454 35.959 34.092L33.709 35.6875L34.288 36.503L36.3295 35.053C37.2836 35.3317 38.288 35.394 39.2693 35.2355C40.2506 35.077 41.1841 34.7015 42.002 34.1365C42.2967 33.9374 42.5759 33.7164 42.8375 33.4755L42.1595 32.7405C41.9357 32.9476 41.6965 33.1375 41.444 33.3085Z" fill="white"/>
<path d="M36.4088 25.8465C35.6932 26.3037 35.1199 26.9523 34.754 27.7186C34.388 28.485 34.244 29.3385 34.3383 30.1825L27.9998 34.2455L21.6603 30.185C21.7566 29.3407 21.6133 28.4864 21.2468 27.7197C20.8803 26.9531 20.3054 26.3051 19.5878 25.85C18.6353 25.1935 17.477 24.9046 16.3278 25.037C15.7857 25.09 15.262 25.2621 14.7941 25.541C14.3262 25.8198 13.9256 26.1985 13.621 26.6501C13.3164 27.1016 13.1152 27.6149 13.0319 28.1531C12.9485 28.6914 12.985 29.2414 13.1388 29.764C13.4469 30.8786 14.1488 31.8436 15.1143 32.48C15.8056 32.9756 16.6227 33.2662 17.4717 33.3187C18.3206 33.3711 19.1672 33.1832 19.9143 32.7765L24.8348 36.27L20.1523 39.2725C19.931 39.4131 19.7401 39.5967 19.5911 39.8125C19.442 40.0282 19.3377 40.2717 19.2845 40.5285C19.2312 40.7852 19.2301 41.0501 19.2811 41.3073C19.332 41.5645 19.4341 41.8089 19.5813 42.026C19.7279 42.2426 19.9163 42.4277 20.1354 42.5704C20.3545 42.7132 20.6 42.8107 20.8573 42.8573C21.1147 42.9039 21.3787 42.8986 21.634 42.8417C21.8893 42.7848 22.1306 42.6774 22.3438 42.526L27.9998 38.515L33.6558 42.529C33.8692 42.6851 34.112 42.7966 34.3696 42.8566C34.6271 42.9167 34.8941 42.9242 35.1546 42.8786C35.4151 42.8331 35.6638 42.7354 35.8856 42.5914C36.1075 42.4475 36.298 42.2602 36.4457 42.0409C36.5935 41.8215 36.6954 41.5746 36.7455 41.3149C36.7955 41.0553 36.7926 40.7881 36.737 40.5296C36.6814 40.2711 36.5741 40.0264 36.4217 39.8103C36.2692 39.5942 36.0747 39.4111 35.8498 39.272L31.1618 36.272L36.0858 32.777C36.8328 33.1838 37.6793 33.3719 38.5283 33.3197C39.3773 33.2674 40.1944 32.9769 40.8858 32.4815C42.9408 31.0945 43.6118 28.4775 42.3803 26.6475C41.1488 24.8175 38.4683 24.4595 36.4088 25.8465ZM21.7648 41.7125C21.5512 41.8563 21.2898 41.9109 21.0364 41.8646C20.7831 41.8184 20.5579 41.675 20.4088 41.465C20.3366 41.3585 20.2866 41.2387 20.2616 41.1125C20.2367 40.9864 20.2373 40.8565 20.2634 40.7306C20.2896 40.6047 20.3408 40.4854 20.4139 40.3796C20.4871 40.2738 20.5807 40.1839 20.6893 40.115L25.7138 36.893L27.1333 37.9L21.7648 41.7125ZM35.7348 40.731C35.774 40.9207 35.7551 41.1178 35.6808 41.2967C35.6064 41.4755 35.4799 41.6279 35.3177 41.7338C35.1556 41.8398 34.9653 41.8946 34.7716 41.8909C34.578 41.8873 34.3899 41.8255 34.2318 41.7135L20.2123 31.7635C20.1268 31.7029 20.0244 31.6706 19.9197 31.6713C19.8149 31.6721 19.7129 31.7057 19.6283 31.7675C19.036 32.154 18.3395 32.3501 17.6325 32.3293C16.9255 32.3084 16.2418 32.0717 15.6733 31.651C14.9083 31.1492 14.3513 30.3871 14.1053 29.506C13.9876 29.1211 13.9575 28.7147 14.0171 28.3166C14.0767 27.9186 14.2245 27.5389 14.4498 27.2053C14.6751 26.8718 14.9721 26.5928 15.3191 26.3888C15.6661 26.1849 16.0543 26.0611 16.4553 26.0265C17.3643 25.9244 18.2795 26.1554 19.0313 26.6765C19.634 27.0464 20.109 27.5918 20.3927 28.2395C20.6764 28.8872 20.7551 29.6062 20.6183 30.3C20.5926 30.4017 20.5995 30.5089 20.6381 30.6064C20.6767 30.7039 20.745 30.7869 20.8333 30.8435L35.3103 40.1145C35.4189 40.1834 35.5125 40.2735 35.5854 40.3794C35.6583 40.4854 35.7092 40.6049 35.7348 40.731ZM40.3248 31.65C39.7561 32.0706 39.0722 32.3072 38.3652 32.3278C37.6581 32.3485 36.9616 32.1522 36.3693 31.7655C36.2847 31.7037 36.1827 31.6701 36.0779 31.6693C35.9732 31.6686 35.8708 31.7009 35.7853 31.7615L30.2538 35.6885L28.9278 34.8385L35.1648 30.8385C35.2529 30.7819 35.3211 30.6992 35.3597 30.6018C35.3982 30.5045 35.4053 30.3975 35.3798 30.296C35.2457 29.6021 35.3259 28.8839 35.6097 28.2366C35.8936 27.5894 36.3676 27.0439 36.9688 26.6725C38.5688 25.594 40.6258 25.832 41.5503 27.2015C42.4748 28.571 41.9243 30.5715 40.3248 31.65Z" fill="white"/>
<path d="M18.4632 13.9164L17.9097 13.0834C16.7019 13.8837 15.7961 15.0647 15.3362 16.4386C14.8762 17.8126 14.8886 19.3008 15.3712 20.6669L16.3137 20.3329C15.9056 19.1768 15.8955 17.9174 16.2851 16.7549C16.6746 15.5924 17.4414 14.5933 18.4637 13.9164H18.4632Z" fill="white"/>
<path d="M17.3746 22.134C17.1338 21.8609 16.9205 21.5648 16.7376 21.25L15.8721 21.75C16.088 22.1222 16.3401 22.4722 16.6246 22.795L17.3746 22.134Z" fill="white"/>
<path d="M33.4904 30.1L34.9139 22.983C36.0712 22.8823 37.1448 22.338 37.9099 21.4638C38.6751 20.5897 39.0725 19.4535 39.0191 18.2931C38.9657 17.1326 38.4655 16.0377 37.6233 15.2376C36.7811 14.4374 35.6621 13.994 34.5004 14C33.4894 13.9965 32.5073 14.3377 31.7164 14.9675C31.3045 14.3614 30.7505 13.8652 30.1028 13.5223C29.4551 13.1794 28.7333 13.0001 28.0004 13.0001C27.2675 13.0001 26.5458 13.1794 25.8981 13.5223C25.2504 13.8652 24.6964 14.3614 24.2844 14.9675C23.4935 14.3377 22.5115 13.9965 21.5004 14C20.3427 13.9999 19.2295 14.446 18.3922 15.2456C17.5549 16.0451 17.058 17.1366 17.0048 18.2931C16.9515 19.4496 17.346 20.5821 18.1063 21.4552C18.8666 22.3283 19.9341 22.8748 21.0869 22.981L22.5104 30.1L23.4904 29.904L23.2104 28.5H32.7904L32.5104 29.9L33.4904 30.1ZM31.0769 27.5L31.4954 24.571L30.5054 24.429L30.0669 27.5H28.5004V22H27.5004V27.5H25.9339L25.4954 24.429L24.5054 24.571L24.9239 27.5H23.0104L21.9904 22.4C21.9674 22.2871 21.906 22.1856 21.8167 22.1127C21.7274 22.0398 21.6157 22 21.5004 22C20.5722 22 19.6819 21.6313 19.0255 20.9749C18.3692 20.3185 18.0004 19.4283 18.0004 18.5C18.0004 17.5718 18.3692 16.6815 19.0255 16.0252C19.6819 15.3688 20.5722 15 21.5004 15C21.9769 14.9988 22.4485 15.0959 22.8858 15.2851C23.3231 15.4744 23.7167 15.7518 24.0419 16.1C24.0975 16.1588 24.1665 16.2032 24.243 16.2295C24.3195 16.2557 24.4012 16.263 24.4812 16.2507C24.5611 16.2384 24.6369 16.2069 24.702 16.1589C24.7671 16.1109 24.8196 16.0478 24.8549 15.975C25.1405 15.3835 25.5872 14.8845 26.1436 14.5353C26.7 14.1861 27.3435 14.0009 28.0004 14.0009C28.6573 14.0009 29.3009 14.1861 29.8573 14.5353C30.4136 14.8845 30.8603 15.3835 31.1459 15.975C31.1813 16.0478 31.2337 16.1109 31.2988 16.1589C31.3639 16.2069 31.4397 16.2384 31.5196 16.2507C31.5996 16.263 31.6813 16.2557 31.7578 16.2295C31.8343 16.2032 31.9033 16.1588 31.9589 16.1C32.2842 15.7518 32.6777 15.4744 33.115 15.2851C33.5523 15.0959 34.0239 14.9988 34.5004 15C35.4287 15 36.3189 15.3688 36.9753 16.0252C37.6317 16.6815 38.0004 17.5718 38.0004 18.5C38.0004 19.4283 37.6317 20.3185 36.9753 20.9749C36.3189 21.6313 35.4287 22 34.5004 22C34.3852 22 34.2734 22.0398 34.1841 22.1127C34.0948 22.1856 34.0335 22.2871 34.0104 22.4L32.9904 27.5H31.0769Z" fill="white"/>
</svg>
